<svg xmlns="http://www.w3.org/2000/svg" viewBox="0 0 400 400" role="img" aria-label="Megadeth Hidden Warheads Avatar">
  <defs>
    <radialGradient id="g" cx="50%" cy="45%" r="60%">
      <stop offset="0%" stop-color="#ffd57c"/>
      <stop offset="55%" stop-color="#f0a400"/>
      <stop offset="100%" stop-color="#3c1905"/>
    </radialGradient>
  </defs>
  <rect width="400" height="400" fill="#080706"/>
  <circle cx="200" cy="200" r="188" fill="url(#g)" stroke="#111" stroke-width="8"/>
  <path d="M200 78c44 0 80 35 80 80v38c0 26-16 53-37 67l9 44H148l9-44c-22-14-37-41-37-67v-38c0-45 35-80 80-80z" fill="#8f7a5f" stroke="#3f3429" stroke-width="6"/>
  <circle cx="170" cy="188" r="11" fill="#1a1614"/>
  <circle cx="230" cy="188" r="11" fill="#1a1614"/>
  <path d="M176 230h48l-8 26h-32z" fill="#1a1614"/>
  <path d="M154 278h92l-10 24h-72z" fill="#33291e"/>
  <text x="200" y="352" fill="#f2f2f2" font-size="52" text-anchor="middle" font-family="serif" font-weight="700">MEGADETH</text>
</svg>
